<svg width="40" height="43" viewBox="0 0 40 43" fill="none" xmlns="http://www.w3.org/2000/svg">
<g clip-path="url(#clip0)">
<path fill-rule="evenodd" clip-rule="evenodd" d="M66.6167 42.2018L63.5481 33.8011C62.6111 33.8854 61.6303 33.9271 60.6077 33.9271V42.076C60.6077 42.6636 60.2664 43 59.6708 43H54.9828C54.386 43 54.0447 42.6636 54.0447 42.076V17.9239C54.0447 17.3364 54.386 17 54.9828 17H63.165C70.0682 17 73.5638 19.7303 73.5638 25.0646C73.5638 28.4247 72.1143 30.861 69.3013 32.2889L73.9464 41.8654C74.245 42.4955 73.9464 42.9579 73.2224 42.9579H67.682C67.1279 42.9579 66.7868 42.7059 66.6167 42.2018ZM66.9151 25.1906C66.9151 23.1328 65.5941 22.0408 62.8666 22.0408H60.6077V28.9706C64.7416 29.1806 66.9151 27.8366 66.9151 25.1906ZM87.3854 37.4554L85.5619 42.2439C85.3885 42.7479 85.0409 43 84.4763 43H79.9158C79.2215 43 78.9174 42.5796 79.1343 41.9498L88.2116 17.7565C88.3849 17.2527 88.7327 17 89.2974 17H94.856C95.4207 17 95.7673 17.2527 95.9418 17.7565L105.018 41.9498C105.235 42.5796 104.931 43 104.236 43H99.1988C98.6339 43 98.2863 42.7479 98.1129 42.2439L96.3317 37.4554H87.3854ZM89.0368 32.5413H94.638L91.8587 22.5446L89.0368 32.5413ZM113.093 42.076V17.9246C113.093 17.3364 113.416 17 113.98 17H118.211C118.776 17 119.098 17.3364 119.098 17.9246V42.076C119.098 42.6638 118.776 43 118.211 43H113.98C113.416 43 113.093 42.6638 113.093 42.076ZM129.107 42.076V17.9246C129.107 17.3364 129.458 17 130.072 17H134.717C135.331 17 135.682 17.3364 135.682 17.9246V37.9177H146.157C146.771 37.9177 147.122 38.2535 147.122 38.8419V42.076C147.122 42.6638 146.771 43 146.157 43H130.072C129.458 43 129.107 42.6638 129.107 42.076ZM155.641 36.6851C157.319 37.3164 159.427 37.9062 161.148 37.9062C163.127 37.9062 164.246 37.1064 164.246 35.5906C164.246 33.3173 161.579 32.4751 158.867 31.128C156.157 29.7809 153.49 27.8448 153.49 23.5924C153.49 18.7094 156.975 16.015 162.826 16.015C165.15 16.015 167.386 16.4354 169.237 17.0251C169.796 17.1936 170.011 17.6147 169.839 18.2038L168.892 21.4036C168.677 21.9927 168.29 22.1612 167.687 21.9505C166.268 21.4453 164.417 21.0243 163.084 21.0243C161.105 21.0243 160.159 21.9505 160.159 23.2137C160.159 25.2345 162.611 25.9918 165.107 27.1289C167.988 28.4336 171 30.3705 171 35.2117C171 40.4319 167.214 43 160.976 43C158.351 43 156.029 42.5789 153.791 41.779C153.232 41.5688 153.017 41.1477 153.232 40.6003L154.437 37.2325C154.609 36.643 155.039 36.4325 155.641 36.6851ZM59.0738 9.69336L57.8462 6.46246C57.471 6.49418 57.0789 6.51057 56.6702 6.51057V9.64481C56.6702 9.87095 56.5336 9.99999 56.295 9.99999H54.4199C54.1813 9.99999 54.0447 9.87095 54.0447 9.64481V0.355179C54.0447 0.129039 54.1813 0 54.4199 0H57.6927C60.4537 0 61.8517 1.05 61.8517 3.10187C61.8517 4.3944 61.2727 5.33133 60.1471 5.88049L62.0051 9.56432C62.1251 9.80621 62.0051 9.98402 61.7162 9.98402H59.4996C59.2778 9.98402 59.1421 9.88692 59.0738 9.69336ZM59.1926 3.1502C59.1926 2.35829 58.664 1.93837 57.573 1.93837H56.6702V4.60415C58.3234 4.68527 59.1926 4.16826 59.1926 3.1502ZM65.0538 9.6444V0.355377C65.0538 0.129247 65.1884 0 65.4236 0H71.4546C71.6909 0 71.8244 0.129247 71.8244 0.355377V1.59952C71.8244 1.82565 71.6909 1.95469 71.4546 1.95469H67.574V3.94195H71.0516C71.2867 3.94195 71.4214 4.07077 71.4214 4.29754V5.54105C71.4214 5.76718 71.2867 5.89664 71.0516 5.89664H67.574V8.0453H71.6909C71.926 8.0453 72.0596 8.17476 72.0596 8.40089V9.6444C72.0596 9.87096 71.926 9.99999 71.6909 9.99999H65.4236C65.1884 9.99999 65.0538 9.87096 65.0538 9.6444ZM77.3837 4.47482H80.4171C80.6338 4.47482 80.758 4.60428 80.758 4.8304V6.07452C80.758 6.30064 80.6338 6.42967 80.4171 6.42967H77.3837V9.64441C77.3837 9.87096 77.2597 9.99999 77.0431 9.99999H75.4029C75.1863 9.99999 75.0621 9.87096 75.0621 9.64441V0.355583C75.0621 0.129458 75.1863 0 75.4029 0H80.7264C80.943 0 81.067 0.129458 81.067 0.355583V1.5997C81.067 1.82583 80.943 1.95486 80.7264 1.95486H77.3837V4.47482ZM86.2682 7.86729L85.567 9.70913C85.4999 9.90289 85.3673 9.99999 85.1498 9.99999H83.3958C83.1281 9.99999 83.0118 9.83859 83.0953 9.59606L86.5866 0.290649C86.6524 0.097097 86.7865 0 87.0036 0H89.1418C89.3591 0 89.493 0.097097 89.559 0.290649L93.0503 9.59606C93.1338 9.83859 93.0175 9.99999 92.7496 9.99999H90.8124C90.5951 9.99999 90.461 9.90289 90.3943 9.70913L89.7092 7.86729H86.2682ZM86.9039 5.97734H89.0584L87.9895 2.13248L86.9039 5.97734ZM103.836 10.4686C102.989 10.8284 102.108 11 101.158 11C97.7716 11 96.0794 9.23535 96.0794 5.75688C96.0794 2.15872 97.9103 0 101.261 0C102.177 0 103.041 0.154243 103.749 0.428402C103.974 0.513766 104.043 0.684945 103.956 0.908066L103.542 2.19304C103.455 2.41594 103.3 2.50153 103.058 2.41594C102.541 2.22737 101.97 2.07313 101.347 2.07313C99.6027 2.07313 98.7912 3.34094 98.7912 5.53398C98.7912 7.6586 99.5164 8.9438 101.33 8.9438C102.125 8.9438 102.678 8.75523 103.18 8.5495C103.421 8.46414 103.594 8.5495 103.663 8.78933L104.06 9.98895C104.13 10.2118 104.06 10.383 103.836 10.4686ZM111.95 9.6444C111.95 9.87096 111.808 9.99999 111.559 9.99999H109.623C109.374 9.99999 109.232 9.87096 109.232 9.6444V1.95469H106.478C106.229 1.95469 106.088 1.82565 106.088 1.59952V0.355377C106.088 0.129247 106.229 0 106.478 0H114.704C114.953 0 115.095 0.129247 115.095 0.355377V1.59952C115.095 1.82565 114.953 1.95469 114.704 1.95469H111.95V9.6444ZM117.097 5.61953C117.097 2.04997 118.973 0 122.254 0C125.347 0 127.105 1.9471 127.105 5.36357C127.105 8.93313 125.229 11 121.931 11C118.856 11 117.097 9.03578 117.097 5.61953ZM119.734 5.55155C119.734 7.77217 120.512 8.89891 122.067 8.89891C123.657 8.89891 124.468 7.75461 124.468 5.46577C124.468 3.22827 123.69 2.10085 122.118 2.10085C120.528 2.10085 119.734 3.26272 119.734 5.55155ZM134.136 9.69336L132.908 6.46246C132.533 6.49418 132.141 6.51057 131.732 6.51057V9.64481C131.732 9.87095 131.595 9.99999 131.357 9.99999H129.482C129.243 9.99999 129.107 9.87095 129.107 9.64481V0.355179C129.107 0.129039 129.243 0 129.482 0H132.755C135.516 0 136.914 1.05 136.914 3.10187C136.914 4.3944 136.335 5.33133 135.209 5.88049L137.067 9.56432C137.187 9.80621 137.067 9.98402 136.778 9.98402H134.561C134.34 9.98402 134.204 9.88692 134.136 9.69336ZM134.255 3.1502C134.255 2.35829 133.726 1.93837 132.635 1.93837H131.732V4.60415C133.385 4.68527 134.255 4.16826 134.255 3.1502ZM141.117 9.6444V0.355377C141.117 0.129247 141.224 0 141.412 0H142.823C143.01 0 143.118 0.129247 143.118 0.355377V9.6444C143.118 9.87096 143.01 9.99999 142.823 9.99999H141.412C141.224 9.99999 141.117 9.87096 141.117 9.6444ZM157.13 0.355591V9.64462C157.13 9.87117 156.996 9.99999 156.761 9.99999H155.251C155.049 9.99999 154.916 9.93526 154.798 9.77407L150.555 4.15211V9.64462C150.555 9.87117 150.42 9.99999 150.186 9.99999H148.492C148.257 9.99999 148.122 9.87117 148.122 9.64462V0.355591C148.122 0.12946 148.257 0 148.492 0H150.002C150.202 0 150.337 0.0647314 150.454 0.226131L154.714 5.81615V0.355591C154.714 0.12946 154.849 0 155.083 0H156.761C156.996 0 157.13 0.12946 157.13 0.355591ZM168.882 10.0591C167.917 10.5896 166.746 11 165.213 11C161.906 11 160.132 9.06696 160.132 5.66268C160.132 1.9673 162.268 0 165.799 0C166.815 0 167.727 0.170914 168.674 0.513191C168.898 0.598648 168.985 0.770011 168.916 0.992107L168.519 2.2584C168.433 2.49785 168.279 2.58331 168.037 2.49786C167.504 2.30958 166.677 2.07012 165.816 2.07012C163.835 2.07012 162.871 3.30146 162.871 5.61104C162.871 7.7328 163.663 8.92986 165.334 8.92986C165.713 8.92986 166.195 8.86177 166.66 8.6735V6.10732C166.66 5.86786 166.798 5.73122 167.039 5.73122H168.76C169.003 5.73122 169.14 5.86786 169.14 6.10732V9.61442C169.14 9.8196 169.054 9.9567 168.882 10.0591ZM8.25781 6.806C6.05459 8.80822 4.11912 11.0225 2.46648 13.4107C1.71879 14.4906 0 13.9907 0 12.6866V1.31464C0 0.588565 0.601883 0 1.34439 0H12.667C13.4095 0 14.0116 0.588565 14.0116 1.31464V1.75007C14.0116 2.19298 13.7807 2.60222 13.4034 2.84711C11.5795 4.03062 9.85826 5.35142 8.25781 6.806ZM13.9323 8.67859C14.6438 8.14623 15.3803 7.64482 16.1322 7.16441C16.8493 6.70634 17.5807 6.26771 18.332 5.85783C23.4536 3.06293 29.3408 1.39466 35.6055 1.00269C36.3766 0.954494 37.0306 1.56003 37.0306 2.32364V13.4793C37.0306 14.1658 36.4975 14.7344 35.8055 14.7934C29.9661 15.29 24.7441 17.4075 20.8939 20.8793C16.4045 24.9275 13.9323 30.6604 13.9323 37.0222V41.679C13.9323 42.4083 13.3336 43 12.5953 43H1.33679C0.598484 43 0 42.4083 0 41.679V40.4938V37.559V37.0222C0 36.137 0.031995 35.2593 0.091507 34.3891C0.718174 25.247 4.60749 16.9961 11.2059 10.9363C12.0749 10.1384 12.9859 9.38671 13.9323 8.67859Z" fill="#E23A00"/>
</g>
<defs>
<clipPath id="clip0">
<rect width="171" height="43" fill="white"/>
</clipPath>
</defs>
</svg>
